<svg width="22" height="22" viewBox="0 0 22 22" fill="none" xmlns="http://www.w3.org/2000/svg">
<path d="M8.71758 4.66875C8.49716 4.4479 8.22461 4.2862 7.92513 4.19862C7.62566 4.11104 7.30893 4.1004 7.00425 4.1677C6.69957 4.23499 6.41678 4.37803 6.18205 4.5836C5.94732 4.78916 5.76822 5.05061 5.66133 5.34375L0.739451 18.8822C0.637704 19.1621 0.604751 19.4624 0.643368 19.7578C0.681985 20.0531 0.791041 20.3349 0.961343 20.5793C1.13165 20.8236 1.3582 21.0235 1.62192 21.162C1.88563 21.3005 2.17878 21.3735 2.47664 21.375C2.69542 21.3746 2.91245 21.3359 3.11789 21.2606L16.6563 16.3387C16.9498 16.2323 17.2116 16.0535 17.4175 15.8189C17.6235 15.5844 17.767 15.3017 17.8347 14.9969C17.9023 14.6922 17.892 14.3753 17.8047 14.0757C17.7174 13.776 17.5559 13.5032 17.3351 13.2825L8.71758 4.66875ZM7.76789 17.1759L4.82414 14.2322L5.7757 11.6156L10.3845 16.2244L7.76789 17.1759ZM3.97851 16.5656L5.43445 18.0244L3.14226 18.8578L3.97851 16.5656ZM12.7188 15.375L6.62508 9.28125L7.56258 6.69562L15.3035 14.4375L12.7188 15.375ZM10.0001 3.75V1.5C10.0001 1.20163 10.1186 0.915483 10.3296 0.704505C10.5406 0.493526 10.8267 0.375 11.1251 0.375C11.4234 0.375 11.7096 0.493526 11.9206 0.704505C12.1315 0.915483 12.2501 1.20163 12.2501 1.5V3.75C12.2501 4.04837 12.1315 4.33452 11.9206 4.5455C11.7096 4.75647 11.4234 4.875 11.1251 4.875C10.8267 4.875 10.5406 4.75647 10.3296 4.5455C10.1186 4.33452 10.0001 4.04837 10.0001 3.75ZM20.9201 11.5791C21.1314 11.7904 21.2502 12.0771 21.2502 12.3759C21.2502 12.6748 21.1314 12.9615 20.9201 13.1728C20.7087 13.3842 20.4221 13.5029 20.1232 13.5029C19.8243 13.5029 19.5377 13.3842 19.3263 13.1728L17.8263 11.6728C17.615 11.4615 17.4962 11.1748 17.4962 10.8759C17.4962 10.5771 17.615 10.2904 17.8263 10.0791C18.0377 9.86772 18.3243 9.74899 18.6232 9.74899C18.9221 9.74899 19.2087 9.86772 19.4201 10.0791L20.9201 11.5791ZM20.8554 7.81687L18.6054 8.56687C18.3223 8.66123 18.0133 8.63928 17.7465 8.50583C17.4796 8.37239 17.2766 8.13839 17.1823 7.85531C17.0879 7.57224 17.1099 7.26327 17.2433 6.99638C17.3768 6.72949 17.6107 6.52655 17.8938 6.43219L20.1438 5.68219C20.4269 5.58783 20.7359 5.60979 21.0028 5.74323C21.2696 5.87667 21.4726 6.11067 21.567 6.39375C21.6613 6.67683 21.6394 6.98579 21.5059 7.25268C21.3725 7.51957 21.1385 7.72252 20.8554 7.81687ZM12.6813 6.18094C12.9841 4.45031 14.2554 3.375 16.0001 3.375C16.6048 3.375 16.8148 3.14156 16.9376 2.91375C17.0469 2.70377 17.1107 2.47315 17.1251 2.23688V2.25C17.1251 1.95163 17.2436 1.66548 17.4546 1.4545C17.6656 1.24353 17.9517 1.125 18.2501 1.125C18.5484 1.125 18.8346 1.24353 19.0456 1.4545C19.2565 1.66548 19.3751 1.95163 19.3751 2.25C19.3751 3.60656 18.476 5.625 16.0001 5.625C15.537 5.625 15.0429 5.73656 14.8976 6.56812C14.8521 6.82888 14.7162 7.06527 14.5137 7.23571C14.3112 7.40616 14.0551 7.49974 13.7904 7.5C13.725 7.49989 13.6598 7.49424 13.5954 7.48312C13.3015 7.43165 13.0401 7.26554 12.8687 7.02134C12.6973 6.77713 12.6299 6.47483 12.6813 6.18094Z" fill="#6ee7b7"/>
</svg>
